<svg width="777" height="486" viewBox="0 0 777 486" fill="none" xmlns="http://www.w3.org/2000/svg">
<circle cx="573.66" cy="45.6604" r="3.66038" fill="#EAF3FA"/>
<circle cx="586.472" cy="45.6604" r="3.66038" fill="#EAF3FA"/>
<circle cx="599.283" cy="45.6604" r="3.66038" fill="#EAF3FA"/>
<circle cx="612.094" cy="45.6604" r="3.66038" fill="#EAF3FA"/>
<circle cx="624.906" cy="45.6604" r="3.66038" fill="#EAF3FA"/>
<circle cx="637.717" cy="45.6604" r="3.66038" fill="#EAF3FA"/>
<circle cx="650.528" cy="45.6604" r="3.66038" fill="#EAF3FA"/>
<circle cx="663.34" cy="45.6604" r="3.66038" fill="#EAF3FA"/>
<circle cx="573.66" cy="57.5566" r="3.66038" fill="#EAF3FA"/>
<circle cx="586.472" cy="57.5566" r="3.66038" fill="#EAF3FA"/>
<circle cx="599.283" cy="57.5566" r="3.66038" fill="#EAF3FA"/>
<circle cx="612.094" cy="57.5566" r="3.66038" fill="#EAF3FA"/>
<circle cx="624.906" cy="57.5566" r="3.66038" fill="#EAF3FA"/>
<circle cx="637.717" cy="57.5566" r="3.66038" fill="#EAF3FA"/>
<circle cx="650.528" cy="57.5566" r="3.66038" fill="#EAF3FA"/>
<circle cx="663.34" cy="57.5566" r="3.66038" fill="#EAF3FA"/>
<circle cx="573.66" cy="69.4529" r="3.66038" fill="#EAF3FA"/>
<circle cx="586.472" cy="69.4529" r="3.66038" fill="#EAF3FA"/>
<circle cx="599.283" cy="69.4529" r="3.66038" fill="#EAF3FA"/>
<circle cx="612.094" cy="69.4529" r="3.66038" fill="#EAF3FA"/>
<circle cx="624.906" cy="69.4529" r="3.66038" fill="#EAF3FA"/>
<circle cx="637.717" cy="69.4529" r="3.66038" fill="#EAF3FA"/>
<circle cx="650.528" cy="69.4529" r="3.66038" fill="#EAF3FA"/>
<circle cx="663.34" cy="69.4529" r="3.66038" fill="#EAF3FA"/>
<circle cx="573.66" cy="81.3491" r="3.66038" fill="#EAF3FA"/>
<circle cx="586.472" cy="81.3491" r="3.66038" fill="#EAF3FA"/>
<circle cx="599.283" cy="81.3491" r="3.66038" fill="#EAF3FA"/>
<circle cx="612.094" cy="81.3491" r="3.66038" fill="#EAF3FA"/>
<circle cx="624.906" cy="81.3491" r="3.66038" fill="#EAF3FA"/>
<circle cx="637.717" cy="81.3491" r="3.66038" fill="#EAF3FA"/>
<circle cx="650.528" cy="81.3491" r="3.66038" fill="#EAF3FA"/>
<circle cx="663.34" cy="81.3491" r="3.66038" fill="#EAF3FA"/>
<circle cx="573.66" cy="93.2453" r="3.66038" fill="#EAF3FA"/>
<circle cx="586.472" cy="93.2453" r="3.66038" fill="#EAF3FA"/>
<circle cx="599.283" cy="93.2453" r="3.66038" fill="#EAF3FA"/>
<circle cx="612.094" cy="93.2453" r="3.66038" fill="#EAF3FA"/>
<circle cx="624.906" cy="93.2453" r="3.66038" fill="#EAF3FA"/>
<circle cx="637.717" cy="93.2453" r="3.66038" fill="#EAF3FA"/>
<circle cx="650.528" cy="93.2453" r="3.66038" fill="#EAF3FA"/>
<circle cx="663.34" cy="93.2453" r="3.66038" fill="#EAF3FA"/>
<circle cx="573.66" cy="105.142" r="3.66038" fill="#EAF3FA"/>
<circle cx="586.472" cy="105.142" r="3.66038" fill="#EAF3FA"/>
<circle cx="599.283" cy="105.142" r="3.66038" fill="#EAF3FA"/>
<circle cx="612.094" cy="105.142" r="3.66038" fill="#EAF3FA"/>
<circle cx="624.906" cy="105.142" r="3.66038" fill="#EAF3FA"/>
<circle cx="637.717" cy="105.142" r="3.66038" fill="#EAF3FA"/>
<circle cx="650.528" cy="105.142" r="3.66038" fill="#EAF3FA"/>
<circle cx="663.34" cy="105.142" r="3.66038" fill="#EAF3FA"/>
<circle cx="573.66" cy="117.038" r="3.66038" fill="#EAF3FA"/>
<circle cx="586.472" cy="117.038" r="3.66038" fill="#EAF3FA"/>
<circle cx="599.283" cy="117.038" r="3.66038" fill="#EAF3FA"/>
<circle cx="612.094" cy="117.038" r="3.66038" fill="#EAF3FA"/>
<circle cx="624.906" cy="117.038" r="3.66038" fill="#EAF3FA"/>
<circle cx="637.717" cy="117.038" r="3.66038" fill="#EAF3FA"/>
<circle cx="650.528" cy="117.038" r="3.66038" fill="#EAF3FA"/>
<circle cx="663.34" cy="117.038" r="3.66038" fill="#EAF3FA"/>
<circle cx="62.6604" cy="81.6604" r="3.66038" fill="#EAF3FA"/>
<circle cx="75.4717" cy="81.6604" r="3.66038" fill="#EAF3FA"/>
<circle cx="88.283" cy="81.6604" r="3.66038" fill="#EAF3FA"/>
<circle cx="101.094" cy="81.6604" r="3.66038" fill="#EAF3FA"/>
<circle cx="113.906" cy="81.6604" r="3.66038" fill="#EAF3FA"/>
<circle cx="126.717" cy="81.6604" r="3.66038" fill="#EAF3FA"/>
<circle cx="62.6604" cy="93.5566" r="3.66038" fill="#EAF3FA"/>
<circle cx="75.4717" cy="93.5566" r="3.66038" fill="#EAF3FA"/>
<circle cx="88.283" cy="93.5566" r="3.66038" fill="#EAF3FA"/>
<circle cx="101.094" cy="93.5566" r="3.66038" fill="#EAF3FA"/>
<circle cx="113.906" cy="93.5566" r="3.66038" fill="#EAF3FA"/>
<circle cx="126.717" cy="93.5566" r="3.66038" fill="#EAF3FA"/>
<circle cx="62.6604" cy="105.66" r="3.66038" fill="#EAF3FA"/>
<circle cx="75.4717" cy="105.66" r="3.66038" fill="#EAF3FA"/>
<circle cx="88.283" cy="105.66" r="3.66038" fill="#EAF3FA"/>
<circle cx="101.094" cy="105.66" r="3.66038" fill="#EAF3FA"/>
<circle cx="113.906" cy="105.66" r="3.66038" fill="#EAF3FA"/>
<circle cx="126.717" cy="105.66" r="3.66038" fill="#EAF3FA"/>
<circle cx="62.6604" cy="117.764" r="3.66038" fill="#EAF3FA"/>
<circle cx="75.4717" cy="117.764" r="3.66038" fill="#EAF3FA"/>
<circle cx="88.283" cy="117.764" r="3.66038" fill="#EAF3FA"/>
<circle cx="101.094" cy="117.764" r="3.66038" fill="#EAF3FA"/>
<circle cx="113.906" cy="117.764" r="3.66038" fill="#EAF3FA"/>
<circle cx="126.717" cy="117.764" r="3.66038" fill="#EAF3FA"/>
<circle cx="62.6604" cy="129.868" r="3.66038" fill="#EAF3FA"/>
<circle cx="75.4717" cy="129.868" r="3.66038" fill="#EAF3FA"/>
<circle cx="88.283" cy="129.868" r="3.66038" fill="#EAF3FA"/>
<circle cx="101.094" cy="129.868" r="3.66038" fill="#EAF3FA"/>
<circle cx="113.906" cy="129.868" r="3.66038" fill="#EAF3FA"/>
<circle cx="126.717" cy="129.868" r="3.66038" fill="#EAF3FA"/>
<circle cx="62.6604" cy="141.972" r="3.66038" fill="#EAF3FA"/>
<circle cx="75.4717" cy="141.972" r="3.66038" fill="#EAF3FA"/>
<circle cx="88.283" cy="141.972" r="3.66038" fill="#EAF3FA"/>
<circle cx="101.094" cy="141.972" r="3.66038" fill="#EAF3FA"/>
<circle cx="113.906" cy="141.972" r="3.66038" fill="#EAF3FA"/>
<circle cx="126.717" cy="141.972" r="3.66038" fill="#EAF3FA"/>
<circle cx="62.6604" cy="154.075" r="3.66038" fill="#EAF3FA"/>
<circle cx="75.4717" cy="154.075" r="3.66038" fill="#EAF3FA"/>
<circle cx="88.283" cy="154.075" r="3.66038" fill="#EAF3FA"/>
<circle cx="101.094" cy="154.075" r="3.66038" fill="#EAF3FA"/>
<circle cx="113.906" cy="154.075" r="3.66038" fill="#EAF3FA"/>
<circle cx="126.717" cy="154.075" r="3.66038" fill="#EAF3FA"/>
<circle cx="62.6604" cy="166.179" r="3.66038" fill="#EAF3FA"/>
<circle cx="75.4717" cy="166.179" r="3.66038" fill="#EAF3FA"/>
<circle cx="88.283" cy="166.179" r="3.66038" fill="#EAF3FA"/>
<circle cx="101.094" cy="166.179" r="3.66038" fill="#EAF3FA"/>
<circle cx="113.906" cy="166.179" r="3.66038" fill="#EAF3FA"/>
<circle cx="126.717" cy="166.179" r="3.66038" fill="#EAF3FA"/>
<circle cx="62.6604" cy="178.283" r="3.66038" fill="#EAF3FA"/>
<circle cx="75.4717" cy="178.283" r="3.66038" fill="#EAF3FA"/>
<circle cx="88.283" cy="178.283" r="3.66038" fill="#EAF3FA"/>
<circle cx="101.094" cy="178.283" r="3.66038" fill="#EAF3FA"/>
<circle cx="113.906" cy="178.283" r="3.66038" fill="#EAF3FA"/>
<circle cx="126.717" cy="178.283" r="3.66038" fill="#EAF3FA"/>
<circle cx="62.6604" cy="190.387" r="3.66038" fill="#EAF3FA"/>
<circle cx="75.4717" cy="190.387" r="3.66038" fill="#EAF3FA"/>
<circle cx="88.283" cy="190.387" r="3.66038" fill="#EAF3FA"/>
<circle cx="101.094" cy="190.387" r="3.66038" fill="#EAF3FA"/>
<circle cx="113.906" cy="190.387" r="3.66038" fill="#EAF3FA"/>
<circle cx="126.717" cy="190.387" r="3.66038" fill="#EAF3FA"/>
<circle cx="62.6604" cy="202.49" r="3.66038" fill="#EAF3FA"/>
<circle cx="75.4717" cy="202.49" r="3.66038" fill="#EAF3FA"/>
<circle cx="88.283" cy="202.49" r="3.66038" fill="#EAF3FA"/>
<circle cx="101.094" cy="202.49" r="3.66038" fill="#EAF3FA"/>
<circle cx="113.906" cy="202.49" r="3.66038" fill="#EAF3FA"/>
<circle cx="126.717" cy="202.49" r="3.66038" fill="#EAF3FA"/>
<circle cx="62.6604" cy="214.594" r="3.66038" fill="#EAF3FA"/>
<circle cx="75.4717" cy="214.594" r="3.66038" fill="#EAF3FA"/>
<circle cx="88.283" cy="214.594" r="3.66038" fill="#EAF3FA"/>
<circle cx="101.094" cy="214.594" r="3.66038" fill="#EAF3FA"/>
<circle cx="113.906" cy="214.594" r="3.66038" fill="#EAF3FA"/>
<circle cx="126.717" cy="214.594" r="3.66038" fill="#EAF3FA"/>
<path d="M83.8407 414.888C83.8723 414.913 696.095 414.813 696.095 414.813C716.251 371.788 716.217 350.766 718.509 326.104C731.172 189.793 628.583 168.836 598.53 163.153C506.507 145.749 548.39 59.6371 308.593 75.7917C286.616 77.2716 234.795 89.2272 216.936 96.9716C204.409 102.4 157.216 126.688 143.371 167.772C138.998 180.739 137.949 195.379 142.359 211.626C157.964 269.123 117.278 265.818 87.5485 293.218C47.868 329.79 52.0153 389.595 83.8407 414.888Z" fill="#EAF3FA"/>
<path d="M448.528 414.852H448.613C449.108 414.852 449.504 414.444 449.494 413.95L448.159 356.017L444.225 355.558L447.581 413.953C447.605 414.456 448.023 414.852 448.528 414.852Z" fill="#B0D4FF"/>
<path d="M471.452 414.852H471.537C472.032 414.852 472.428 414.444 472.418 413.95L471.083 356.017L467.149 355.558L470.505 413.953C470.532 414.456 470.949 414.852 471.452 414.852Z" fill="#95C0F4"/>
<path d="M408.19 414.852H408.105C407.609 414.852 407.214 414.444 407.223 413.95L408.559 356.017L412.492 355.558L409.137 413.953C409.112 414.456 408.695 414.852 408.19 414.852Z" fill="#B0D4FF"/>
<path d="M474.06 352.423V312.724C474.06 305.738 468.402 300.076 461.421 300.076H432.842C425.862 300.076 420.204 305.738 420.204 312.724V353.939L474.06 352.423Z" fill="#B0D4FF"/>
<path d="M415.083 358.69H470.265C472.36 358.69 474.06 356.989 474.06 354.892V352.423H415.083V358.69Z" fill="#95C0F4"/>
<path d="M408.471 358.69H450.218C451.767 358.69 453.025 357.434 453.025 355.881V355.23C453.025 353.679 451.77 352.42 450.218 352.42H408.471C406.922 352.42 405.664 353.677 405.664 355.23V355.881C405.664 357.434 406.922 358.69 408.471 358.69Z" fill="#CAE5FF"/>
<path d="M504.666 143.484H339.911V285.819H504.666V143.484Z" fill="#95C0F4"/>
<path d="M501.464 145.856H343.048V282.981H501.464V145.856Z" fill="#DFEDFB"/>
<path d="M398.416 205.517H363.702V162.137L369.59 156.827H398.416V205.517Z" fill="white"/>
<path d="M363.702 162.137H369.4L369.59 156.827L363.702 162.137Z" fill="#B0D4FF"/>
<path d="M386.616 161.048H375.502V161.578H386.616V161.048Z" fill="#B0D4FF"/>
<path d="M389.233 162.637H372.885V163.167H389.233V162.637Z" fill="#B0D4FF"/>
<path d="M394.956 172.843H367.812V173.524H394.956V172.843Z" fill="#B0D4FF"/>
<path d="M394.956 174.911H367.812V175.592H394.956V174.911Z" fill="#B0D4FF"/>
<path d="M394.956 176.982H367.812V177.662H394.956V176.982Z" fill="#B0D4FF"/>
<path d="M394.956 179.05H367.812V179.73H394.956V179.05Z" fill="#B0D4FF"/>
<path d="M394.956 201.182H367.812V201.863H394.956V201.182Z" fill="#B0D4FF"/>
<path d="M438.498 265.703H403.785V222.323L409.671 217.014H438.498V265.703Z" fill="white"/>
<path d="M403.785 222.323H409.481L409.671 217.014L403.785 222.323Z" fill="#B0D4FF"/>
<path d="M426.699 221.234H415.583V221.764H426.699V221.234Z" fill="#B0D4FF"/>
<path d="M429.317 222.824H412.968V223.353H429.317V222.824Z" fill="#B0D4FF"/>
<path d="M435.04 233.03H407.896V233.71H435.04V233.03Z" fill="#B0D4FF"/>
<path d="M435.04 235.098H407.896V235.778H435.04V235.098Z" fill="#B0D4FF"/>
<path d="M435.04 237.166H407.896V237.846H435.04V237.166Z" fill="#B0D4FF"/>
<path d="M435.04 239.236H407.896V239.916H435.04V239.236Z" fill="#B0D4FF"/>
<path d="M435.04 245.6H407.896V246.28H435.04V245.6Z" fill="#B0D4FF"/>
<path d="M435.04 247.668H407.896V248.348H435.04V247.668Z" fill="#B0D4FF"/>
<path d="M435.04 250.066H407.896V250.747H435.04V250.066Z" fill="#B0D4FF"/>
<path d="M458.088 156.827H438.92V173.74H458.088V156.827Z" fill="#B0D4FF"/>
<path d="M447.664 158.839C447.664 158.375 448.04 157.999 448.504 157.999C448.968 157.999 449.344 158.375 449.344 158.839C449.344 159.303 448.968 159.68 448.504 159.68C448.04 159.68 447.664 159.303 447.664 158.839Z" fill="#FFA412"/>
<path d="M457.482 179.077L438.36 180.412L439.536 197.284L458.658 195.949L457.482 179.077Z" fill="white"/>
<path d="M447.292 182.833C447.261 182.372 447.608 181.968 448.072 181.937C448.533 181.905 448.936 182.252 448.968 182.717C448.999 183.181 448.652 183.582 448.188 183.613C447.724 183.645 447.324 183.297 447.292 182.833Z" fill="#B0D4FF"/>
<path d="M393.781 241.381L374.659 242.716L375.835 259.588L394.957 258.253L393.781 241.381Z" fill="white"/>
<path d="M383.595 245.138C383.564 244.677 383.911 244.273 384.375 244.242C384.836 244.21 385.239 244.558 385.271 245.022C385.302 245.483 384.955 245.887 384.491 245.918C384.027 245.95 383.627 245.603 383.595 245.138Z" fill="#B0D4FF"/>
<path d="M369.712 253.466L350.547 253.664L350.721 270.575L369.887 270.377L369.712 253.466Z" fill="white"/>
<path d="M359.329 256.664C359.324 256.2 359.695 255.821 360.159 255.816C360.623 255.811 361.002 256.183 361.006 256.647C361.011 257.111 360.64 257.49 360.176 257.495C359.712 257.5 359.333 257.128 359.329 256.664Z" fill="#B0D4FF"/>
<path d="M486.5 192.628L467.631 189.253L464.659 205.902L483.527 209.277L486.5 192.628Z" fill="#EEF6FF"/>
<path d="M475.942 193.083C476.012 192.687 476.391 192.422 476.789 192.492C477.187 192.563 477.45 192.942 477.379 193.341C477.309 193.737 476.93 194.001 476.532 193.931C476.133 193.858 475.871 193.479 475.942 193.083Z" fill="#78ACEA"/>
<path d="M427.617 178.718L408.56 180.782L410.379 197.597L429.435 195.533L427.617 178.718Z" fill="#EEF6FF"/>
<path d="M417.606 182.107C417.562 181.706 417.851 181.346 418.254 181.302C418.655 181.259 419.014 181.548 419.058 181.949C419.102 182.35 418.813 182.709 418.412 182.753C418.011 182.797 417.65 182.508 417.606 182.107Z" fill="#78ACEA"/>
<path d="M377.845 218.706L359.099 222.706L362.622 239.247L381.368 235.247L377.845 218.706Z" fill="#BAE8E3"/>
<path d="M368.565 223.541C368.228 223.322 368.13 222.87 368.349 222.53C368.568 222.192 369.019 222.095 369.359 222.313C369.697 222.532 369.794 222.984 369.575 223.324C369.357 223.664 368.903 223.762 368.565 223.541Z" fill="#FFA412"/>
<path d="M428.117 173.738H409.872V161.471L414.925 156.827H428.117V173.738Z" fill="white"/>
<path d="M409.775 161.471H414.758L414.925 156.827L409.775 161.471Z" fill="#B0D4FF"/>
<path d="M419.063 158.392C419.063 158.062 419.332 157.792 419.663 157.792C419.993 157.792 420.262 158.062 420.262 158.392C420.262 158.723 419.993 158.992 419.663 158.992C419.332 158.992 419.063 158.723 419.063 158.392Z" fill="#B0D4FF"/>
<path d="M481.422 274.16H463.179V261.891L468.23 257.247H481.422V274.16Z" fill="white"/>
<path d="M463.082 261.891H468.065L468.23 257.247L463.082 261.891Z" fill="#B0D4FF"/>
<path d="M472.367 258.812C472.367 258.482 472.637 258.212 472.967 258.212C473.3 258.212 473.567 258.482 473.567 258.812C473.567 259.142 473.297 259.412 472.967 259.412C472.637 259.412 472.367 259.142 472.367 258.812Z" fill="#B0D4FF"/>
<path d="M489.746 249.814H471.501V237.547L476.551 232.901H489.746V249.814Z" fill="white"/>
<path d="M471.404 237.547H476.386L476.551 232.901L471.404 237.547Z" fill="#B0D4FF"/>
<path d="M480.691 234.466C480.691 234.135 480.961 233.866 481.291 233.866C481.621 233.866 481.891 234.135 481.891 234.466C481.891 234.796 481.621 235.066 481.291 235.066C480.961 235.066 480.691 234.799 480.691 234.466Z" fill="#B0D4FF"/>
<path d="M465.668 249.814H447.426V237.547L452.476 232.901H465.668V249.814Z" fill="#BAE8E3"/>
<path d="M447.329 237.547H452.311L452.476 232.901L447.329 237.547Z" fill="#A1D6CE"/>
<path d="M456.614 234.466C456.614 234.135 456.883 233.866 457.214 233.866C457.544 233.866 457.813 234.135 457.813 234.466C457.813 234.796 457.544 235.066 457.214 235.066C456.883 235.066 456.614 234.799 456.614 234.466Z" fill="#F99746"/>
<path d="M494.893 169.505H476.651V157.238L481.701 152.594H494.893V169.505Z" fill="#BAE8E3"/>
<path d="M476.551 157.238H481.536L481.701 152.594L476.551 157.238Z" fill="#A1D6CE"/>
<path d="M485.839 154.157C485.839 153.826 486.108 153.557 486.438 153.557C486.769 153.557 487.038 153.826 487.038 154.157C487.038 154.487 486.769 154.757 486.438 154.757C486.108 154.757 485.839 154.49 485.839 154.157Z" fill="#F99746"/>
<path d="M314.481 140.041H279.778C278.185 140.041 276.882 138.736 276.882 137.142V103.622C276.882 102.028 278.185 100.723 279.778 100.723H314.481C316.074 100.723 317.378 102.028 317.378 103.622V137.142C317.378 138.736 316.074 140.041 314.481 140.041Z" fill="#C0D8FB"/>
<path d="M312.978 138.337H281.281C279.827 138.337 278.635 137.147 278.635 135.689V105.076C278.635 103.62 279.824 102.427 281.281 102.427H312.978C314.433 102.427 315.625 103.618 315.625 105.076V135.691C315.622 137.147 314.433 138.337 312.978 138.337Z" fill="#DFEBFD"/>
<path d="M296.29 106.016C296.29 105.552 296.666 105.178 297.127 105.178C297.591 105.178 297.965 105.554 297.965 106.016C297.965 106.48 297.589 106.854 297.127 106.854C296.666 106.854 296.29 106.478 296.29 106.016Z" fill="#B7D3F3"/>
<path d="M303.059 107.202C303.285 106.796 303.795 106.65 304.2 106.876C304.606 107.102 304.752 107.613 304.526 108.018C304.3 108.424 303.79 108.57 303.385 108.344C302.979 108.118 302.833 107.608 303.059 107.202Z" fill="#B7D3F3"/>
<path d="M308.858 111.812C309.246 111.561 309.766 111.673 310.018 112.062C310.268 112.451 310.157 112.971 309.768 113.223C309.38 113.474 308.86 113.362 308.607 112.973C308.357 112.584 308.469 112.064 308.858 111.812Z" fill="#B7D3F3"/>
<path d="M311.73 118.949C312.194 118.949 312.568 119.325 312.568 119.787C312.568 120.251 312.191 120.625 311.73 120.625C311.266 120.625 310.892 120.249 310.892 119.787C310.892 119.325 311.266 118.949 311.73 118.949Z" fill="#B7D3F3"/>
<path d="M310.263 127.23C310.591 127.558 310.591 128.09 310.263 128.418C309.936 128.746 309.404 128.746 309.076 128.418C308.748 128.09 308.748 127.558 309.076 127.23C309.406 126.902 309.936 126.902 310.263 127.23Z" fill="#B7D3F3"/>
<path d="M304.997 132.518C305.325 132.846 305.325 133.378 304.997 133.706C304.669 134.034 304.137 134.034 303.809 133.706C303.482 133.378 303.482 132.846 303.809 132.518C304.137 132.19 304.669 132.19 304.997 132.518Z" fill="#B7D3F3"/>
<path d="M296.29 135.242C296.29 134.778 296.666 134.403 297.127 134.403C297.591 134.403 297.965 134.78 297.965 135.242C297.965 135.703 297.589 136.08 297.127 136.08C296.666 136.08 296.29 135.703 296.29 135.242Z" fill="#B7D3F3"/>
<path d="M291.174 107.202C290.948 106.796 290.438 106.65 290.032 106.876C289.627 107.102 289.481 107.613 289.707 108.018C289.933 108.424 290.443 108.57 290.848 108.344C291.251 108.118 291.397 107.608 291.174 107.202Z" fill="#B7D3F3"/>
<path d="M285.373 111.812C284.984 111.561 284.465 111.673 284.212 112.062C283.962 112.451 284.074 112.971 284.462 113.223C284.851 113.474 285.37 113.362 285.623 112.973C285.875 112.584 285.764 112.064 285.373 111.812Z" fill="#B7D3F3"/>
<path d="M282.5 118.949C282.036 118.949 281.663 119.325 281.663 119.787C281.663 120.251 282.039 120.625 282.5 120.625C282.964 120.625 283.34 120.249 283.34 119.787C283.34 119.325 282.964 118.949 282.5 118.949Z" fill="#B7D3F3"/>
<path d="M283.967 127.23C283.639 127.558 283.639 128.09 283.967 128.418C284.295 128.746 284.826 128.746 285.154 128.418C285.482 128.09 285.482 127.558 285.154 127.23C284.826 126.902 284.295 126.902 283.967 127.23Z" fill="#B7D3F3"/>
<path d="M289.236 132.518C288.908 132.846 288.908 133.378 289.236 133.706C289.564 134.034 290.095 134.034 290.423 133.706C290.751 133.378 290.751 132.846 290.423 132.518C290.093 132.19 289.564 132.19 289.236 132.518Z" fill="#B7D3F3"/>
<path d="M296.904 119.789C296.904 119.325 297.28 118.951 297.744 118.951C298.208 118.951 298.582 119.328 298.582 119.789C298.582 120.253 298.205 120.628 297.744 120.628C297.278 120.628 296.904 120.251 296.904 119.789Z" fill="#B7D3F3"/>
<path d="M297.856 109.301H297.627V119.789H297.856V109.301Z" fill="#B7D3F3"/>
<path d="M302.98 115.133L297.424 119.499L297.849 120.039L303.404 115.674L302.98 115.133Z" fill="#B7D3F3"/>
<path d="M528.117 412.779C527.952 415.034 524.771 415.059 521.163 414.641C517.555 414.223 518.514 415.136 513.461 415.207C508.408 415.277 506.667 413.605 506.422 412.884C506.203 412.242 508.636 411.703 511.239 411.069C511.567 410.991 511.895 410.908 512.223 410.823C515.158 410.077 517.101 407.878 519.614 405.958C521.993 404.141 525.06 397.558 525.06 397.558L531.961 397.247C531.961 397.247 529.054 403.147 527.962 405.688C527.321 407.185 527.593 409.022 527.872 410.434C528.027 411.2 528.175 411.985 528.117 412.779Z" fill="#FFB27D"/>
<path d="M521.163 414.638C517.555 414.22 518.514 415.134 513.461 415.204C508.408 415.275 506.667 413.603 506.422 412.881C506.203 412.24 508.636 411.7 511.239 411.066L511.271 411.115C511.271 411.115 514.525 412.862 518.684 412.444C522.076 412.104 525.536 410.687 527.874 410.434C528.025 411.202 528.173 411.987 528.112 412.782C527.952 415.034 524.771 415.059 521.163 414.638Z" fill="#233862"/>
<path d="M575.784 413.246C575.621 415.501 572.44 415.53 568.832 415.114C565.224 414.699 566.183 415.613 561.132 415.688C556.079 415.763 554.336 414.094 554.091 413.372C553.872 412.731 556.305 412.189 558.908 411.552C559.236 411.472 559.564 411.389 559.892 411.307C562.827 410.558 564.767 408.357 567.278 406.434C569.655 404.614 567.28 393.833 567.28 393.833L574.871 393.094C574.871 393.094 574.507 402.17 574.511 406.296C574.514 407.924 575.262 409.489 575.543 410.901C575.691 411.666 575.842 412.451 575.784 413.246Z" fill="#FFB27D"/>
<path d="M568.832 415.114C565.224 414.699 566.183 415.613 561.132 415.688C556.079 415.763 554.336 414.094 554.091 413.372C553.872 412.731 556.305 412.189 558.908 411.552L558.94 411.601C558.94 411.601 562.193 413.345 566.355 412.923C569.745 412.58 573.205 411.158 575.543 410.903C575.694 411.671 575.844 412.454 575.784 413.248C575.619 415.501 572.44 415.53 568.832 415.114Z" fill="#233862"/>
<path d="M553.63 226.93C552.323 221.55 554.217 219.048 555.927 217.713C556.738 215.733 557.663 214.307 558.607 213.77C560.334 212.788 562.4 212.681 563.847 212.766C563.476 212.382 562.742 212.241 562.742 212.241C563.638 212.107 565.641 212.997 565.641 212.997C578.115 208.188 580.077 226.568 579.814 230.838C579.555 235.107 579.589 240.137 586.079 243.501C598.462 249.921 581.963 274.111 581.963 274.111C582.279 270.661 566.367 252.45 558.068 246.997C556.048 244.021 555.329 238.762 555.276 238.347C555.625 242.516 556.337 244.857 556.976 246.174C553.188 242.689 552.627 234.322 553.63 226.93Z" fill="#A9453D"/>
<path d="M558.556 247.27C558.515 247.289 562.565 249.393 565.61 248.56C568.475 247.777 570.347 244.059 570.308 244.052C569.094 243.812 568.745 242.142 568.771 234.971L568.223 235.078L559.001 236.906C559.001 236.906 559.209 239.809 559.217 242.546C559.222 244.844 559.083 247.024 558.556 247.27Z" fill="#FFB27D"/>
<path d="M558.998 236.906C558.998 236.906 559.207 239.809 559.214 242.546C564.374 242.4 567.103 237.688 568.22 235.076L558.998 236.906Z" fill="#ED975D"/>
<path d="M521.476 401.215C521.025 402.634 522.04 404.094 523.528 404.165L527.131 404.333L530.943 404.449C531.898 404.478 532.808 404.063 533.41 403.322C536.453 399.587 545.821 387.133 551.502 369.042C551.663 368.534 551.83 368.021 552.01 367.501C555.761 356.551 563.541 342.807 567.64 330.368C568.293 328.388 568.878 326.522 569.403 324.757C569.57 324.191 569.735 323.637 569.891 323.09C572.911 312.585 573.785 305.689 574.591 298.321L544.99 298.56C544.99 298.557 538.76 347.031 521.476 401.215Z" fill="#2A4E96"/>
<path d="M549.135 281.535C549.21 295.631 547.069 301.68 547.069 301.68C547.069 301.68 559.743 308.124 574.805 303.381C574.982 303.325 587.276 300.516 587.276 300.516C587.023 299.945 584.782 290.446 584.537 289.921C581.356 283.085 578.943 280.089 578.564 277.987C577.865 274.065 577.848 270.005 578.197 266.177C579.115 256.044 581.849 247.632 581.849 247.632C577.746 246.696 573.902 245.056 569.631 243.452C568.647 244.677 565.644 245.957 563.038 245.899C560.037 245.833 559.066 244.548 559.221 243.143C556.024 244.925 553.472 246.606 553.472 246.606C550.755 251.33 545.243 255.918 544.844 263.164C544.747 264.948 549.133 281.141 549.135 281.535Z" fill="white"/>
<path d="M574.591 283.107C575.886 284.939 578.367 296.078 584.537 297.481C581.356 289.542 578.943 286.06 578.564 283.62C577.865 279.064 577.848 274.349 578.197 269.903C576.131 266.279 574.589 263.794 574.589 263.794C574.426 263.208 571.306 253.549 570.306 262.182C569.31 270.816 573.144 281.056 574.591 283.107Z" fill="#5F9AA8"/>
<path d="M557.277 239.496C557.277 239.496 569.488 239.698 569.495 232.084C569.502 224.474 571.085 219.373 563.289 218.921C555.492 218.472 553.974 221.373 553.355 223.912C552.733 226.457 554.101 239.248 557.277 239.496Z" fill="#FFB27D"/>
<path d="M557.728 218.736C557.728 218.736 561.072 227.667 566.202 228.986C571.333 230.306 573.56 228.93 573.56 228.93C573.56 228.93 569.624 225.8 568.808 220.34C568.805 220.343 560.249 214.486 557.728 218.736Z" fill="#A9453D"/>
<path d="M558.556 219.463C558.556 219.463 556.06 221.458 555.451 223.395C554.841 225.334 554.569 229.324 553.406 229.188C553.406 229.188 550.888 223.118 553.717 219.684C556.718 216.044 558.556 219.463 558.556 219.463Z" fill="#A9453D"/>
<path d="M538.063 291.321L532.296 308.916L535.584 310.236L545.121 294.689L538.063 291.321Z" fill="#FFB27D"/>
<path d="M553.613 245.571C553.613 245.571 546.811 248.271 544.845 252.482C542.875 256.693 539.896 284.935 538.709 287.834C537.521 290.732 536.63 293.029 536.63 293.029C536.63 293.029 540.059 295.921 543.507 296.132C546.955 296.343 553.613 245.571 553.613 245.571Z" fill="#F99746"/>
<path d="M559.222 243.146C559.222 243.146 552.158 260.613 551.949 264.146C551.74 267.682 551.119 321.948 551.119 321.948C551.119 321.948 551.534 324.444 546.756 323.404C541.977 322.364 540.731 321.324 540.731 321.324C540.731 321.324 545.301 287.848 544.055 276.204C542.81 264.559 553.613 245.569 553.613 245.569L559.222 243.146Z" fill="#F99746"/>
<path d="M527.129 404.333L531.269 404.459C532.009 404.481 532.716 404.162 533.189 403.591C535.972 400.219 545.675 387.597 551.502 369.044C551.663 368.536 551.83 368.024 552.01 367.503C555.761 356.554 563.541 342.81 567.64 330.371C568.293 328.39 568.878 326.524 569.403 324.76C569.57 324.194 569.735 323.64 569.891 323.093L565.532 319.783C565.532 319.783 552.445 340.992 548.394 360.95C544.871 378.283 530.776 399.145 527.129 404.333Z" fill="#1E3D70"/>
<path d="M565.076 362.806C565.005 371.989 565.44 392.455 566.557 402.459C566.659 403.375 567.433 404.065 568.354 404.065H571.442C572.744 404.065 573.717 404.056 574.366 404.046C574.927 404.039 575.405 403.635 575.512 403.086C578.583 387.444 580.781 374.451 582.391 363.222C583.736 353.823 584.933 345.767 585.853 338.829C586.781 331.851 587.424 326.004 587.655 321.066C587.691 320.289 587.718 319.533 587.732 318.799C587.747 318.06 587.752 317.343 587.745 316.646L562.169 314.15C562.487 331.158 565.117 357.164 565.076 362.806Z" fill="#2A4E96"/>
<path d="M571.44 404.065C572.61 404.065 573.513 404.058 574.155 404.048C574.834 404.039 575.417 403.553 575.548 402.884C578.598 387.332 580.786 374.402 582.388 363.222C583.733 353.823 584.931 345.767 585.851 338.829C586.778 331.851 587.422 326.004 587.652 321.066L578.268 326.592C578.268 326.592 584.258 328.706 581.973 344.717C579.686 360.726 574.621 401.798 571.44 404.065Z" fill="#1E3D70"/>
<path d="M570.233 320.911C570.233 320.911 572.035 327.425 578.268 326.592C584.501 325.761 593.363 322.019 593.363 322.019C593.363 322.019 590.7 313.596 587.388 302.53C583.379 289.134 578.413 271.864 576.075 260.97C575.419 257.918 574.97 255.369 574.803 253.544L569.631 243.503C569.631 243.503 561.922 260.822 561.506 265.188C561.091 269.555 570.233 320.911 570.233 320.911Z" fill="#F99746"/>
<path d="M576.456 264.535L569.631 243.501C569.65 243.51 578.251 246.062 582.578 248.249C582.578 248.249 585.283 251.738 586.956 259.789C586.956 259.789 588.723 279.117 584.775 286.186C584.775 286.186 572.309 288.682 552.365 281.819V277.246C552.365 277.246 574.179 278.391 578.647 278.908L576.456 264.535Z" fill="#FFB27D"/>
<path d="M570.51 274.335C570.789 281.404 572.45 295.128 587.271 302.474C587.31 302.494 587.349 302.513 587.39 302.53C583.381 289.134 578.416 271.864 576.078 260.97C573.353 265.04 570.357 270.442 570.51 274.335Z" fill="#ED7D2B"/>
<path d="M569.631 243.501C569.631 243.501 582.281 244.392 585.329 251.184C588.376 257.976 589.345 280.57 585.467 287.224C585.467 287.224 580.128 288.745 570.685 286.978C570.568 286.956 570.452 286.934 570.335 286.913C570.335 286.913 567.322 279.53 570.024 278.075C570.024 278.075 577.988 278.49 577.158 275.856C576.328 273.224 569.631 243.501 569.631 243.501Z" fill="#F99746"/>
<path d="M537.912 280.072L538.286 281.27L559.047 274.806C559.047 274.806 559.323 274.49 559.187 274.072C559.037 273.608 558.675 273.608 558.675 273.608L537.912 280.072Z" fill="#A9453D"/>
<path d="M536.409 281.204L537.912 280.072L538.284 281.27L536.409 281.204Z" fill="#A9453D"/>
<path d="M533.114 308.435C533.114 308.435 527.848 311.349 527.156 313.567C526.464 315.786 526.94 320.432 527.775 320.364C528.61 320.293 529.858 315.37 530.55 315.025C531.242 314.68 532.213 313.64 532.213 314.401C532.213 315.161 531.521 316.549 531.866 316.758C532.211 316.967 533.321 314.816 534.083 314.401C534.846 313.985 535.166 310.554 535.907 309.635C536.65 308.712 533.114 308.435 533.114 308.435Z" fill="#FFB27D"/>
<path d="M552.364 277.246C552.364 277.246 547.654 274.342 545.68 274.789C543.703 275.236 538.67 278.886 541.091 279.676C543.512 280.466 545.473 279.637 546.406 280.211C547.338 280.784 548.025 281.834 552.364 281.819C556.706 281.805 552.364 277.246 552.364 277.246Z" fill="#FFB27D"/>
<path d="M181.981 246.059C181.192 244.536 199.206 239.049 199.49 254.088C199.49 254.088 233.236 253.257 217.123 234.434C211.546 227.917 212.119 222.53 212.286 217.514C212.456 212.499 208.811 197.921 196.321 199.389C196.321 199.389 193.05 198.057 188.969 200.176C179.684 204.995 158.887 251.605 181.981 246.059Z" fill="#163560"/>
<path d="M237.15 262.873C237.15 262.873 239.348 259.526 241.118 259.461C242.888 259.395 246.166 258.477 245.904 259.133C245.641 259.789 243.609 259.854 243.412 260.248C243.216 260.642 246.428 261.232 247.346 261.298C248.264 261.364 250.427 261.298 250.362 261.757C250.296 262.216 246.462 264.119 243.757 263.857C241.052 263.594 237.709 264.644 237.709 264.644L237.15 262.873Z" fill="#FFB27D"/>
<path d="M205.383 263.956C205.383 263.956 206.578 266.323 208.743 269.04C211.354 272.311 215.377 276.092 220.432 276.838C222.846 277.195 225.206 276.675 227.377 275.71C227.382 275.708 227.384 275.708 227.384 275.708C233.52 272.981 238.136 266.712 238.136 266.712C239.219 263.759 237.449 261.757 237.449 261.757C237.449 261.757 225.056 264.547 223.876 263.956C222.695 263.366 215.812 243.518 214.173 241.022C212.531 238.529 206.947 237.234 206.947 237.234L205.383 263.956Z" fill="#B0D0FF"/>
<path d="M208.741 269.04C211.351 272.311 215.375 276.092 220.43 276.838C222.844 277.195 225.204 276.675 227.374 275.71C227.134 275.742 221.006 276.5 218.563 272.126C216.072 267.662 213.376 260.576 209.673 262.938C208.076 263.956 208.146 266.491 208.741 269.04Z" fill="#98BAF4"/>
<path d="M159.149 397.825C159.149 397.825 155.368 401.278 156.107 403.732C156.845 406.187 160.256 407.822 160.718 410.821C161.179 413.819 163.024 415.455 164.683 415.455C166.341 415.455 172.598 415.455 172.598 415.455C172.598 415.455 173.82 413.343 170.87 412.709C167.919 412.072 166.805 408.549 166.989 405.275C167.174 402.005 166.713 397.64 166.713 397.64L160.441 396.187L159.149 397.825Z" fill="#233862"/>
<path d="M191.154 399.293C191.154 399.293 189.794 413.924 191.453 414.74L212.699 414.697C212.699 414.697 212.699 412.242 209.287 411.698C205.876 411.154 199.881 409.154 198.866 404.7C197.851 400.245 191.154 399.293 191.154 399.293Z" fill="#233862"/>
<path d="M176.015 294.331C180.388 284.519 183.061 281.703 182.551 278.658C182.17 276.391 183.71 236.395 183.71 236.395C184.229 236.235 185.268 236.092 185.837 235.965C187.631 235.567 189.115 234.305 189.731 232.575C190.474 230.49 191.067 227.409 191.052 223.55L191.613 223.66L201.029 225.526C201.029 225.526 200.816 228.49 200.808 231.285C200.808 231.309 200.808 231.331 200.808 231.355C200.796 233.783 202.387 235.924 204.718 236.597C205.907 236.94 206.942 237.234 206.942 237.234C206.942 237.234 210.399 247.114 211.06 257.262C211.72 267.412 204.771 271.82 211.113 292.101C217.584 312.816 173.599 299.753 176.015 294.331Z" fill="#FFB27D"/>
<path d="M201.029 225.526C201.029 225.526 200.816 228.49 200.808 231.285C195.539 231.137 192.754 226.325 191.613 223.66L201.029 225.526Z" fill="#E8945B"/>
<path d="M202.79 228.17C202.79 228.17 190.321 228.376 190.314 220.603C190.304 212.832 188.69 207.624 196.649 207.162C204.608 206.703 206.158 209.665 206.791 212.261C207.425 214.856 206.031 227.917 202.79 228.17Z" fill="#FFB27D"/>
<path d="M202.328 206.975C202.328 206.975 198.914 216.093 193.677 217.441C188.44 218.79 186.167 217.385 186.167 217.385C186.167 217.385 190.185 214.19 191.018 208.616C191.016 208.613 199.752 202.635 202.328 206.975Z" fill="#163560"/>
<path d="M201.481 207.714C201.481 207.714 204.011 208.662 205.055 210.508C206.075 212.316 206.942 214.708 206.74 217.643C206.74 217.643 209.312 211.446 206.422 207.94C203.355 204.224 201.481 207.714 201.481 207.714Z" fill="#163560"/>
<path d="M200.075 223.349C200.075 223.349 200.935 224.481 202.656 224.401C204.043 224.335 204.577 223.132 204.577 223.132C204.577 223.132 202.032 222.518 200.075 223.349Z" fill="#EBF3FA"/>
<path d="M174.81 254.086C174.81 254.086 174.495 258.552 174.81 263.913C175.022 267.465 178.613 272.226 179.123 273.402C180.402 276.354 181.842 276.835 181.842 276.835L192.997 279.572L196.919 280.531L209.287 276.835C209.287 276.835 214.921 261.099 212.66 252.241C210.397 243.384 206.942 237.231 206.942 237.231C206.942 237.231 196.848 247.121 183.707 236.393L174.81 254.086Z" fill="#B0D0FF"/>
<path d="M178.076 265.366C178.288 268.918 178.613 272.228 179.123 273.404C180.402 276.357 181.842 276.838 181.842 276.838L192.997 279.574L197.841 278.148C197.841 278.148 181.667 275.696 183.459 261.769L178.076 265.366Z" fill="#F2CCAA"/>
<path d="M208.503 279.226C208.503 279.226 214.629 298.307 215.023 304.802C215.416 311.298 203.314 397.086 202.826 400.08C202.367 402.901 198.866 404.7 198.866 404.7C198.866 404.7 197.256 405.65 194.957 405.001C191.768 404.099 190.761 403.02 190.761 403.02C190.761 403.02 185.994 341.838 188.945 319.982C191.895 298.127 191.929 279.226 191.929 279.226H208.503Z" fill="#ED7D2B"/>
<path d="M182.551 278.658C182.551 278.658 173.208 291.204 172.336 299.685C171.464 308.165 170.969 337.957 169.114 346.224C167.259 354.491 160.441 370.403 160.441 396.19C160.441 396.19 161.15 397.667 163.338 398.454C164.037 398.707 164.974 398.95 165.885 399.159C167.689 399.572 169.541 398.69 170.365 397.03C174.973 387.743 189.658 357.786 190.411 351.568C190.943 347.167 195.581 318.043 205.694 300.953C208.122 296.851 204.203 280.534 204.203 280.534L182.551 278.658Z" fill="#F99746"/>
<path d="M200.354 223.558C200.354 223.558 200.57 224.474 202.846 224.333C202.846 224.333 204.757 224.214 204.698 223.208C204.698 223.208 202.846 222.491 200.354 223.558Z" fill="white"/>
<path d="M209.482 276.281C209.482 276.281 207.022 278.228 202.137 278.327C196.302 278.444 181.845 276.838 181.845 276.838C181.845 276.838 181.201 278.634 181.228 280.531C181.228 280.531 198.885 284.988 209.117 281.183C209.117 281.18 210.436 278.697 209.482 276.281Z" fill="#233862"/>
<path d="M200.874 280.342C200.874 278.68 202.069 277.326 203.535 277.326C205.004 277.326 206.199 278.68 206.199 280.342C206.199 282.004 205.004 283.357 203.535 283.357C202.069 283.357 200.874 282.004 200.874 280.342ZM201.755 280.342C201.755 281.518 202.554 282.475 203.535 282.475C204.516 282.475 205.315 281.518 205.315 280.342C205.315 279.166 204.516 278.208 203.535 278.208C202.554 278.208 201.755 279.166 201.755 280.342Z" fill="white"/>
<path d="M162.827 279.718L180.92 295.484L202.485 270.699L184.392 254.933L162.827 279.718Z" fill="#B5453C"/>
<path d="M185.924 279.79C185.924 279.79 192.553 280.565 192.531 282.14C192.509 283.715 190.88 286.949 190.061 287.092C189.243 287.236 184.666 282.718 184.666 282.718L185.924 279.79Z" fill="#FFB27D"/>
<path d="M183.707 236.393C183.707 236.393 174.857 237.015 171.464 245.267C168.072 253.519 161.635 267.378 161.635 269.708C161.635 272.039 165.231 279.226 184.54 283.357C184.54 283.357 186.538 281.256 186.417 279.593C186.417 279.593 174.364 269.232 174.395 268.022C174.456 265.73 176.372 262.707 186.953 252.113C189.831 249.231 183.707 236.393 183.707 236.393Z" fill="#B0D0FF"/>
<path d="M281.485 415.005H281.4C280.905 415.005 280.509 414.597 280.519 414.104L281.854 356.17L285.788 355.711L282.432 414.106C282.406 414.611 281.988 415.005 281.485 415.005Z" fill="#B0D4FF"/>
<path d="M258.559 415.005H258.474C257.979 415.005 257.583 414.597 257.592 414.104L258.928 356.17L262.861 355.711L259.506 414.106C259.479 414.611 259.061 415.005 258.559 415.005Z" fill="#95C0F4"/>
<path d="M321.821 415.005H321.906C322.402 415.005 322.797 414.597 322.788 414.104L321.452 356.17L317.519 355.711L320.874 414.106C320.901 414.611 321.316 415.005 321.821 415.005Z" fill="#B0D4FF"/>
<path d="M255.951 352.578V312.88C255.951 305.893 261.609 300.231 268.589 300.231H297.168C304.149 300.231 309.807 305.893 309.807 312.88V354.095L255.951 352.578Z" fill="#B0D4FF"/>
<path d="M314.928 358.845H259.746C257.651 358.845 255.951 357.144 255.951 355.047V352.578H314.928V358.845Z" fill="#95C0F4"/>
<path d="M321.54 358.845H279.793C278.244 358.845 276.986 357.589 276.986 356.036V355.385C276.986 353.835 278.241 352.576 279.793 352.576H321.54C323.089 352.576 324.346 353.832 324.346 355.385V356.036C324.346 357.589 323.089 358.845 321.54 358.845Z" fill="#B0D4FF"/>
<path d="M319.92 342.686C315.826 349.818 310.676 352.571 310.676 352.571H289.253C289.253 352.571 323.043 337.245 319.92 342.686Z" fill="#233862"/>
<path d="M303.465 397.864C302.906 398.505 302.836 399.22 303.113 399.983C303.113 399.985 303.115 399.99 303.117 399.993C303.627 401.404 305.317 402.984 307.277 404.559C307.527 404.76 307.75 404.945 307.945 405.115C307.995 405.159 308.046 405.205 308.095 405.249C308.134 405.283 308.173 405.319 308.209 405.353C310.038 407.04 309.35 407.426 312.636 410.85C316.382 414.75 318.961 414.82 319.694 414.466C320.316 414.162 319.053 412.094 317.657 409.768C317.589 409.657 317.523 409.542 317.453 409.428C317.266 409.12 317.082 408.806 316.897 408.495C315.26 405.696 315.681 404.384 316.069 400.219C316.385 396.834 321.331 381.313 321.331 381.313L314.153 380.076C314.153 380.076 311.992 392.435 309.61 394.34C308.335 395.354 306.91 395.368 305.686 396.119C305.599 396.17 305.514 396.226 305.431 396.28C304.735 396.744 304.026 397.22 303.465 397.864Z" fill="#FFB27D"/>
<path d="M303.465 397.864C302.906 398.505 302.836 399.22 303.113 399.983C303.113 399.985 303.115 399.99 303.117 399.993C303.744 401.404 305.388 402.974 307.284 404.544C307.532 404.751 307.75 404.938 307.945 405.115C307.995 405.159 308.046 405.205 308.095 405.249C308.134 405.283 308.173 405.319 308.209 405.353C310.038 407.04 309.35 407.426 312.636 410.85C316.382 414.75 318.961 414.82 319.694 414.466C320.316 414.162 319.053 412.094 317.657 409.768C316.929 409.501 313.541 408.123 310.98 404.845C308.724 401.966 307.221 398.265 305.684 396.119C305.597 396.17 305.512 396.226 305.429 396.28C304.735 396.744 304.026 397.22 303.465 397.864Z" fill="#233862"/>
<path d="M361.346 393.376C361.791 395.594 364.947 395.223 368.478 394.36C372.006 393.497 371.168 394.523 376.189 393.966C381.211 393.41 382.733 391.536 382.886 390.788C383.022 390.124 380.543 389.891 377.879 389.585C377.544 389.548 377.209 389.505 376.872 389.463C373.866 389.087 371.666 387.145 368.937 385.551C366.351 384.042 362.492 377.892 362.492 377.892L355.606 378.438C355.606 378.438 359.219 383.933 360.618 386.321C361.441 387.726 361.397 389.585 361.293 391.019C361.239 391.799 361.188 392.596 361.346 393.376Z" fill="#FFB27D"/>
<path d="M368.478 394.36C372.006 393.497 371.168 394.523 376.189 393.966C381.211 393.41 382.733 391.536 382.886 390.788C383.022 390.124 380.543 389.891 377.879 389.585L377.855 389.636C377.855 389.636 374.844 391.772 370.663 391.874C367.256 391.957 363.648 390.98 361.295 391.019C361.242 391.799 361.191 392.596 361.349 393.376C361.791 395.594 364.947 395.225 368.478 394.36Z" fill="#233862"/>
<path d="M334.953 349.303L328.513 366.641L320.107 389.279C320.107 389.279 317.827 389.5 315.642 388.87C313.631 388.29 311.322 386.766 311.322 386.766C311.322 386.766 313.655 362.459 318.009 348.506C319.126 344.924 320.376 342.027 321.756 340.397C328.508 332.414 334.953 349.303 334.953 349.303Z" fill="#233862"/>
<path d="M328.406 321.768C324.189 320.408 312.157 322.155 300.073 324.522L297.542 320.344L271.44 318.303C271.44 318.303 262.828 337.42 267.543 349.599C268.235 351.39 269.614 352.537 271.96 352.576H272.341C272.341 352.576 287.876 352.566 292.922 352.566C305.902 352.566 320.394 343.636 322.27 343.262C325.34 342.647 326.566 348.79 329.635 355.237C332.704 361.686 358.479 383.797 358.479 383.797C358.479 383.797 362.439 383.836 364.076 383.221C365.836 382.56 366.479 381.702 366.479 381.702C366.479 381.702 337.92 324.84 328.406 321.768Z" fill="#2B478B"/>
<path d="M296.515 244.281C293.172 242.524 288.082 242.286 287.257 242.174C277.365 240.845 271.413 255.228 271.061 259.587C270.415 267.621 266.169 268.845 260.193 273.878C248.208 283.965 251.724 295.687 258.275 300.044C262.206 302.657 269.138 300.044 269.138 300.044C269.235 300.112 288.092 289.496 297.387 284.373C311.324 282.388 305.038 248.759 296.515 244.281Z" fill="#233862"/>
<path d="M289.598 280.011C289.639 280.038 285.025 281.615 281.939 280.247C279.038 278.964 276.838 274.184 276.881 274.182C278.202 274.121 279.652 272.967 280.769 265.385L281.332 265.587L290.785 268.991C290.785 268.991 290.1 272.026 289.656 274.918C289.282 277.343 289.083 279.666 289.598 280.011Z" fill="#FFB27D"/>
<path d="M290.785 268.991C290.785 268.991 290.1 272.026 289.656 274.918C284.227 273.939 282.095 268.525 281.33 265.587L290.785 268.991Z" fill="#ED975D"/>
<path d="M292.191 272.002C292.191 272.002 279.256 270.265 280.461 262.221C281.665 254.178 280.808 248.536 289.117 249.303C297.426 250.074 298.567 253.383 298.817 256.166C299.07 258.948 295.588 272.247 292.191 272.002Z" fill="#FFB27D"/>
<path d="M298.349 251.758C298.349 251.758 290.069 258.9 284.438 259.473C278.807 260.049 276.673 258.239 276.673 258.239C276.673 258.239 279.992 255.48 281.99 251.029C282.578 249.717 283.824 248.817 285.256 248.693C289.275 248.346 296.899 248.188 298.349 251.758Z" fill="#233862"/>
<path d="M293.172 251.116C293.172 251.116 295.942 253.796 296.814 255.784C297.657 257.701 297.909 262.292 297.239 264.114C297.239 264.114 301.554 255.716 299.111 251.636C296.52 247.308 293.172 251.116 293.172 251.116Z" fill="#233862"/>
<path d="M300.49 299.08C300.099 325.282 300.383 319.807 297.518 322.293C296.829 322.891 294.888 323.248 292.334 323.418C284.307 323.951 270.192 322.629 269.655 321.144C267.803 316.007 269.112 314.41 267.567 306.544C267.407 305.709 267.208 304.802 266.972 303.816C265.683 298.414 264.43 296.574 269 287.897C273.145 280.036 277.45 273.654 277.838 273.885C288.772 280.381 289.653 274.92 289.653 274.92C289.653 274.92 300.682 286.298 300.49 299.08Z" fill="white"/>
<path d="M328.513 366.641L320.107 389.279C320.107 389.279 317.827 389.5 315.642 388.87C313.631 388.29 311.322 386.766 311.322 386.766C311.322 386.766 313.655 362.459 318.009 348.506L328.513 366.641Z" fill="#2B478B"/>
<path d="M289.656 274.916C289.656 274.916 300.908 276.826 302.229 281.673C303.55 286.521 311.324 315.023 311.324 315.023C311.324 315.023 305.604 316.051 302.962 313.407C300.32 310.763 293.767 288.874 293.767 288.874L289.656 274.916Z" fill="white"/>
<path d="M292.337 323.416C284.309 323.948 270.194 322.626 269.658 321.142C267.805 316.004 269.114 314.408 267.57 306.542L271.443 295.629C271.443 295.629 270.801 307.781 274.383 310.977C277.96 314.172 289.044 317.147 290.785 319.817C291.623 321.098 292.174 322.383 292.337 323.416Z" fill="#EBF3FF"/>
<path d="M283.136 318.306C283.136 318.306 291.057 316.542 292.334 317.244C293.611 317.946 296.736 320.51 297.127 321.402C297.518 322.293 294.281 320.724 293.23 320.442C292.548 320.259 290.753 320.881 289.865 321.178C286.125 322.425 283.836 321.783 283.836 321.783L283.136 318.306Z" fill="#FFB27D"/>
<path d="M277.833 273.876C277.833 273.876 267.198 274.532 263.517 279.669C258.336 286.903 248.055 317.732 253.945 321.844C260.582 326.473 284.144 323.054 284.144 323.054C284.144 323.054 284.928 319.387 283.838 317.611C282.748 315.837 265.018 312.969 264.199 312.151C263.381 311.332 274.429 296.181 274.429 293.724C274.427 291.272 277.833 273.876 277.833 273.876Z" fill="white"/>
<path d="M292.718 319.45C292.718 319.45 294.376 321.593 294.923 321.849C295.466 322.104 295.818 322.041 295.818 322.041L294.699 320.026L292.718 319.45Z" fill="#FFB27D"/>
<path d="M292.337 317.244L297.161 319.589C297.161 319.589 296.955 319.924 296.362 319.897C295.768 319.871 294.269 319.321 294.269 319.321L292.337 317.244Z" fill="#FFB27D"/>
<path d="M294.922 325.129H333.09L344.57 296.557H306.463L294.922 325.129Z" fill="#F99746"/>
<path d="M333.537 324.016H283.136V325.129H333.09L333.537 324.016Z" fill="#ED7D2B"/>
<path d="M323.455 310.843C323.744 309.84 323.164 309.026 322.159 309.026C321.156 309.026 320.109 309.84 319.82 310.843C319.532 311.847 320.112 312.661 321.117 312.661C322.12 312.663 323.166 311.847 323.455 310.843Z" fill="white"/>
<path d="M494.267 416.065H494.378C495.032 416.065 495.558 415.494 495.544 414.801L493.779 333.688L488.575 333.044L493.011 414.806C493.048 415.513 493.599 416.065 494.267 416.065Z" fill="#78ACEA"/>
<path d="M283.326 416.065H283.214C282.561 416.065 282.034 415.494 282.049 414.801L283.814 333.688L289.017 333.044L284.581 414.806C284.545 415.513 283.994 416.065 283.326 416.065Z" fill="#78ACEA"/>
<path d="M500.531 335.18H277.933C276.109 335.18 274.631 333.7 274.631 331.875V328.694C274.631 326.869 276.109 325.389 277.933 325.389H500.531C502.355 325.389 503.834 326.869 503.834 328.694V331.875C503.834 333.7 502.355 335.18 500.531 335.18Z" fill="#78ACEA"/>
<path d="M229.421 186.371C228.581 165.544 246.025 156.29 263.859 156.29C281.694 156.29 301.104 160.915 302.787 188.609C303.87 206.426 294.379 217.388 267.05 217.388C257.833 217.388 250.67 215.932 245.185 213.339L231.524 225.487L238.238 208.696C232.291 203.165 229.786 195.36 229.421 186.371Z" fill="#DFEDFB"/>
<path d="M634.797 415.975C634.797 415.975 635.299 412.062 636.46 409.737C637.623 407.411 645.019 408.891 645.019 408.891C645.019 408.891 646.498 410.16 646.816 416.082L634.797 415.975Z" fill="#233862"/>
<path d="M609.598 415.921C611.336 414.859 610.346 406.94 610.346 406.94C610.346 406.94 602.248 400.457 601.133 405.421C600.019 410.386 593.441 412.614 589.694 413.221C587.109 413.642 586.31 415.073 586.06 415.921H609.598Z" fill="#233862"/>
<path d="M626.371 358.32C626.041 360.138 625.832 361.63 625.776 362.697C625.024 377.394 613.415 410.993 611.339 411.778C608.126 412.991 603.066 410.412 600.419 409.569C599.322 409.219 598.581 408.111 598.827 406.989C604.574 380.54 606.689 342.457 607.456 319.912C607.845 308.554 609.792 300.71 609.792 300.71C609.792 300.71 638.104 293.15 638.271 302.712C638.424 311.174 628.896 344.36 626.371 358.32Z" fill="#213F7A"/>
<path d="M626.371 358.32L607.459 319.909C607.847 308.552 609.794 300.708 609.794 300.708C609.794 300.708 638.106 293.148 638.274 302.71C638.424 311.174 628.897 344.36 626.371 358.32Z" fill="#233862"/>
<path d="M620.073 302.746L635.04 411.304C635.04 411.304 641.613 412.891 646.724 411.623C646.724 411.623 651.107 353.888 650.74 339.93C650.376 325.972 653.884 302.581 649.939 300C645.993 297.417 620.073 302.746 620.073 302.746Z" fill="#213F7A"/>
<path d="M652.857 300.936C652.93 301.918 652.301 302.81 651.359 303.084C649.271 303.692 646.865 304.112 642.222 305.074C637.861 305.981 631.995 306.783 624.788 306.826C613.325 306.899 608.983 302.946 608.983 302.946C608.491 302.955 609.243 300.555 609.923 289.136C610.154 285.267 610.375 280.366 610.535 274.17C610.681 268.595 610.778 261.971 610.788 254.115C610.8 244.662 625.419 234.495 625.689 234.495L625.691 234.5C625.691 235.861 627.835 238.373 631.135 238.59C635.054 238.847 639.859 236.893 639.859 234.636C639.859 234.614 646.942 245.974 649.458 258.081C650.728 264.175 650.215 264.012 652.857 300.936Z" fill="#B0D0FF"/>
<path d="M625.687 234.497C625.687 234.497 612.094 234.381 608.821 238.973C605.55 243.566 598.377 268.267 602.119 276.485C605.863 284.704 612.866 273.086 616.753 268.051C620.643 263.016 625.687 234.497 625.687 234.497Z" fill="#B0D0FF"/>
<path d="M625.548 232.42L625.555 233.827C625.555 233.827 625.172 238.225 630.584 238.867C635.996 239.511 640.012 238.045 639.864 234.651C639.376 232.024 638.925 229.324 638.888 227.149C638.876 226.34 638.93 225.485 639.08 224.515L628.593 224.306L625.504 224.811L625.548 232.42Z" fill="#FFB27D"/>
<path d="M625.509 224.814L625.551 232.422C626.665 232.94 627.92 233.256 629.331 233.256C634.151 233.256 637.266 229.72 638.893 227.152C638.881 226.342 638.934 225.487 639.085 224.517L628.598 224.308L625.509 224.814Z" fill="#E2915A"/>
<path d="M639.886 222.829C638.67 229.382 630.22 229.166 626.57 228.755C625.543 228.641 624.897 228.51 624.897 228.51C623.739 228.201 623.093 226.374 622.792 223.983C622.195 219.249 622.95 212.299 623.749 210.521C624.951 207.845 627.216 204.953 635.727 207.041C644.233 209.128 641.448 214.433 639.886 222.829Z" fill="#FFB27D"/>
<path d="M611.788 252.905C611.788 252.905 606.531 264.525 606.684 268.007C606.684 268.007 609.287 267.917 611.788 268.663C615.896 269.89 611.788 252.905 611.788 252.905Z" fill="#98BAF4"/>
<path d="M621.136 204.283C621.136 204.283 624.88 203.994 629.3 202.072C632.884 200.511 637.407 202.229 638.876 203.005C638.837 202.769 638.743 202.446 638.519 202.12C638.519 202.12 639.177 202.587 639.277 203.243C639.345 203.294 639.374 203.328 639.357 203.34C639.357 203.34 640.105 203.204 640.586 203.42C640.586 203.42 640.25 203.372 640.129 203.588C640.117 203.61 640.097 203.629 640.076 203.649C645.668 206.353 646.185 215.198 644.386 217.244C642.22 219.706 638.951 225.278 638.951 225.278C638.951 225.278 638.677 223.942 639.073 221.774C639.466 219.606 637.596 219.606 635.234 218.622C632.871 217.638 634.841 214.88 632.774 213.206C630.708 211.532 623.13 212.516 623.227 211.235C620.408 210.207 621.136 204.57 621.136 204.283Z" fill="#233862"/>
<path d="M641.601 274.673C639.381 283.591 615.379 288.2 609.923 289.138C610.154 285.27 610.375 280.369 610.535 274.172L641.601 274.673Z" fill="#98BAF4"/>
<path d="M636.331 277.572C636.56 277.572 641.668 276.809 642.581 276.352C643.494 275.895 647.681 269.944 644.939 268.418C642.2 266.892 634.845 272.993 634.845 272.993L636.331 277.572Z" fill="#FFB27D"/>
<path d="M605.268 279.338C605.268 279.338 625.021 280.41 638.276 277.569C638.276 277.569 638.611 273.737 634.445 272.034C634.445 272.034 613.786 267.652 608.821 268.872C603.86 270.094 605.268 279.338 605.268 279.338Z" fill="#B0D0FF"/>
<path d="M650.631 263.825C646.532 268.773 641.173 272.809 635.265 273.756L635.263 273.754C635.214 273.679 633.474 271.037 633.801 267.152C633.952 265.354 634.544 263.29 635.953 261.091C636.385 260.416 636.771 259.626 637.113 258.749C640.34 250.511 639.859 234.636 639.859 234.636C639.859 234.636 653.559 236.072 657.828 242.174C660.443 245.914 657.109 256.005 650.631 263.825Z" fill="#B0D0FF"/>
<path d="M626.57 228.755C625.543 228.641 624.897 228.51 624.897 228.51C623.739 228.201 623.093 226.374 622.792 223.983C624.965 224.517 625.961 226.199 626.374 226.913C626.561 227.234 626.599 227.956 626.57 228.755Z" fill="#E2915A"/>
<path d="M621.051 232.461C621.051 232.461 616.319 224.649 620 224.308C623.678 223.968 625.157 226.461 625.689 227.375C626.221 228.291 625.551 232.42 625.551 232.42L621.051 232.461Z" fill="#FFB27D"/>
<path d="M639.083 266.892C638.937 267.883 638.643 268.792 638.276 269.604C637.121 272.172 635.263 273.756 635.263 273.756L635.261 273.754C622.972 268.204 620.486 249.143 620.07 238.67C619.903 234.461 620.07 231.637 620.07 231.637C625.614 229.8 627.173 232.993 627.173 232.993C627.173 232.993 633.716 248.57 637.113 258.749C638.412 262.644 639.25 265.752 639.083 266.892Z" fill="#B0D0FF"/>
<path d="M650.631 263.825C646.532 268.773 641.173 272.809 635.265 273.756L635.263 273.754C622.974 268.204 620.488 249.143 620.073 238.67C620.073 238.67 625.888 259.774 633.801 267.152C635.231 268.486 636.732 269.373 638.276 269.601C638.276 269.601 648.256 266.778 650.349 264.122C650.5 263.932 650.589 263.837 650.631 263.825Z" fill="#98BAF4"/>
<path d="M426.825 325.392H388.658L377.178 296.817H415.287L426.825 325.392Z" fill="#2B478B"/>
<path d="M388.211 324.279H438.612V325.392H388.658L388.211 324.279Z" fill="#2B478B"/>
<path d="M398.293 311.106C398.004 310.102 398.584 309.288 399.589 309.288C400.592 309.288 401.639 310.102 401.928 311.106C402.216 312.109 401.634 312.923 400.631 312.923C399.628 312.923 398.582 312.109 398.293 311.106Z" fill="white"/>
<path d="M736.45 415.34V415.583C736.45 415.972 736.091 416.293 735.654 416.293H35.5089C35.0718 416.293 34.7149 415.972 34.7149 415.583V415.34C34.7149 414.952 35.0743 414.631 35.5089 414.631H735.654C736.091 414.631 736.45 414.952 736.45 415.34Z" fill="#0F60FF"/>
<circle cx="85" cy="258" r="12" stroke="#EAF3FA" stroke-width="8"/>
</svg>
