<svg width="617" height="531" viewBox="0 0 617 531" fill="none" xmlns="http://www.w3.org/2000/svg">
<path d="M421.088 98.2977C315.088 110.313 261.327 27.4065 189.822 25.0678C119.691 22.7876 79.144 83.8564 104.051 182.315C132.349 294.221 79.2024 351.08 84.1429 442.23C86.2185 480.555 124.456 535.046 171.843 529.814C234.111 522.973 259.31 451.351 314.328 402.005C363.703 357.716 449.679 327.021 501.451 294.718C552.171 263.058 612.1 240.022 616.836 171.966C619.935 126.888 580.031 80.2607 421.088 98.2977Z" fill="#0450E0"/>
<path d="M538.899 333.978C505.924 388.06 441.201 365.96 386.505 361.136C279.247 351.665 206.544 494.149 93.9362 420.509C-30.7448 338.977 -31.4171 190.822 92.5622 133.904C439.505 -25.3893 568.835 284.895 538.899 333.978Z" fill="#0039A8"/>
<path d="M44.1807 510.549C43.5961 510.549 43.0406 510.344 42.6021 509.905C41.7251 509.028 41.7251 507.596 42.6021 506.748L164.681 384.669C165.558 383.792 166.991 383.792 167.838 384.669C168.715 385.546 168.715 386.978 167.838 387.855L45.7594 509.935C45.3209 510.315 44.7362 510.549 44.1807 510.549Z" fill="white"/>
<path d="M224.464 135.453C223.879 135.453 223.324 135.249 222.885 134.81C222.008 133.933 222.008 132.501 222.885 131.653L353.88 0.657754C354.757 -0.219251 356.19 -0.219251 357.067 0.657754C357.944 1.53476 357.944 2.96721 357.067 3.81498L226.072 134.81C225.604 135.22 225.048 135.453 224.464 135.453Z" fill="white"/>
<path d="M50.7292 126.479C62.0148 126.479 71.1634 118.809 71.1634 109.348C71.1634 99.8869 62.0148 92.2172 50.7292 92.2172C39.4437 92.2172 30.295 99.8869 30.295 109.348C30.295 118.809 39.4437 126.479 50.7292 126.479Z" fill="#0450E0"/>
<path d="M91.042 61.8435C91.042 67.0179 87.3293 71.2275 82.7689 71.2275C78.1792 71.2275 74.4958 67.0179 74.4958 61.8435C74.4958 56.6692 78.2085 52.4596 82.7689 52.4596C87.3586 52.4596 91.042 56.6692 91.042 61.8435Z" fill="#0450E0"/>
<path d="M391.592 415.978C391.592 425.742 381.711 433.665 369.491 433.665C357.272 433.665 347.391 425.742 347.391 415.978C347.391 406.214 357.272 398.292 369.491 398.292C381.711 398.292 391.592 406.214 391.592 415.978Z" fill="#0450E0"/>
<path d="M431.349 395.398C431.349 400.66 426.087 404.928 419.598 404.928C413.108 404.928 407.846 400.66 407.846 395.398C407.846 390.136 413.108 385.868 419.598 385.868C426.117 385.868 431.349 390.136 431.349 395.398Z" fill="#0450E0"/>
</svg>
